<mxfile host="app.diagrams.net" agent="Mozilla/5.0 (X11; Ubuntu; Linux x86_64; rv:137.0) Gecko/20100101 Firefox/137.0" border="50" scale="3" compressed="false" locked="false" version="26.2.13">
  <diagram name="Blank" id="YmL12bMKpDGza6XwsDPr">
    <mxGraphModel dx="1762" dy="795" grid="0" gridSize="10" guides="1" tooltips="1" connect="1" arrows="1" fold="1" page="0" pageScale="1" pageWidth="827" pageHeight="1169" background="none" math="1" shadow="0">
      <root>
        <mxCell id="X5NqExCQtvZxIxQ7pmgY-0" />
        <mxCell id="1" parent="X5NqExCQtvZxIxQ7pmgY-0" />
        <mxCell id="WPgvBvjp4FEESnjXduVI-1" value="能源管理系统" style="ellipse;aspect=fixed;strokeWidth=2;whiteSpace=wrap;fillColor=#60a917;fontColor=#ffffff;strokeColor=#2D7600;" parent="1" vertex="1">
          <mxGeometry x="534" y="765" width="120" height="120" as="geometry" />
        </mxCell>
        <mxCell id="WPgvBvjp4FEESnjXduVI-2" value="能源供给系统" style="ellipse;aspect=fixed;strokeWidth=2;whiteSpace=wrap;fillColor=#ffe6cc;strokeColor=#d79b00;" parent="1" vertex="1">
          <mxGeometry x="378" y="951" width="120" height="120" as="geometry" />
        </mxCell>
        <mxCell id="WPgvBvjp4FEESnjXduVI-3" value="电力系统" style="ellipse;aspect=fixed;strokeWidth=2;whiteSpace=wrap;" parent="1" vertex="1">
          <mxGeometry x="364" y="1303" width="80" height="80" as="geometry" />
        </mxCell>
        <mxCell id="WPgvBvjp4FEESnjXduVI-4" value="高压变电站、配电房" style="rounded=1;arcSize=20;strokeWidth=2" parent="1" vertex="1">
          <mxGeometry x="307" y="1519" width="180" height="50" as="geometry" />
        </mxCell>
        <mxCell id="WPgvBvjp4FEESnjXduVI-5" value="自备电厂或外部电网" style="rounded=1;arcSize=20;strokeWidth=2" parent="1" vertex="1">
          <mxGeometry x="137" y="1351" width="180" height="50" as="geometry" />
        </mxCell>
        <mxCell id="WPgvBvjp4FEESnjXduVI-6" value="分布式能源" style="rounded=1;arcSize=20;strokeWidth=2" parent="1" vertex="1">
          <mxGeometry x="251" y="1435" width="120" height="50" as="geometry" />
        </mxCell>
        <mxCell id="WPgvBvjp4FEESnjXduVI-7" value="蒸汽系统" style="ellipse;aspect=fixed;strokeWidth=2;whiteSpace=wrap;" parent="1" vertex="1">
          <mxGeometry x="142" y="1100" width="90" height="90" as="geometry" />
        </mxCell>
        <mxCell id="WPgvBvjp4FEESnjXduVI-8" value="锅炉、蒸汽发生器" style="rounded=1;arcSize=20;strokeWidth=2" parent="1" vertex="1">
          <mxGeometry x="-130" y="1082" width="170" height="50" as="geometry" />
        </mxCell>
        <mxCell id="WPgvBvjp4FEESnjXduVI-9" value="蒸汽管网及调节阀" style="rounded=1;arcSize=20;strokeWidth=2;fillColor=#60a917;fontColor=#ffffff;strokeColor=#2D7600;" parent="1" vertex="1">
          <mxGeometry x="-139" y="1003" width="170" height="50" as="geometry" />
        </mxCell>
        <mxCell id="WPgvBvjp4FEESnjXduVI-10" value="热力交换设备" style="rounded=1;arcSize=20;strokeWidth=2" parent="1" vertex="1">
          <mxGeometry x="-34" y="936" width="140" height="50" as="geometry" />
        </mxCell>
        <mxCell id="WPgvBvjp4FEESnjXduVI-11" value="燃料系统" style="ellipse;aspect=fixed;strokeWidth=2;whiteSpace=wrap;" parent="1" vertex="1">
          <mxGeometry x="658" y="1106" width="90" height="90" as="geometry" />
        </mxCell>
        <mxCell id="WPgvBvjp4FEESnjXduVI-12" value="燃气管网" style="rounded=1;arcSize=20;strokeWidth=2;fillColor=#60a917;fontColor=#ffffff;strokeColor=#2D7600;" parent="1" vertex="1">
          <mxGeometry x="816" y="1273" width="110" height="50" as="geometry" />
        </mxCell>
        <mxCell id="WPgvBvjp4FEESnjXduVI-13" value="储罐" style="rounded=1;arcSize=20;strokeWidth=2" parent="1" vertex="1">
          <mxGeometry x="856" y="1171" width="70" height="50" as="geometry" />
        </mxCell>
        <mxCell id="WPgvBvjp4FEESnjXduVI-14" value="水资源系统" style="ellipse;aspect=fixed;strokeWidth=2;whiteSpace=wrap;" parent="1" vertex="1">
          <mxGeometry x="142" y="1238" width="100" height="100" as="geometry" />
        </mxCell>
        <mxCell id="WPgvBvjp4FEESnjXduVI-15" value="工业水处理设备" style="rounded=1;arcSize=20;strokeWidth=2" parent="1" vertex="1">
          <mxGeometry x="-96" y="1225" width="150" height="50" as="geometry" />
        </mxCell>
        <mxCell id="WPgvBvjp4FEESnjXduVI-16" value="水泵、管网、水箱" style="rounded=1;arcSize=20;strokeWidth=2;fillColor=#60a917;fontColor=#ffffff;strokeColor=#2D7600;" parent="1" vertex="1">
          <mxGeometry x="-121" y="1148" width="170" height="50" as="geometry" />
        </mxCell>
        <mxCell id="WPgvBvjp4FEESnjXduVI-17" value="能源转换与分配系统" style="ellipse;aspect=fixed;strokeWidth=2;whiteSpace=wrap;fillColor=#d80073;fontColor=#ffffff;strokeColor=#A50040;" parent="1" vertex="1">
          <mxGeometry x="270" y="692" width="160" height="160" as="geometry" />
        </mxCell>
        <mxCell id="WPgvBvjp4FEESnjXduVI-18" value="能源转换设备" style="ellipse;aspect=fixed;strokeWidth=2;whiteSpace=wrap;" parent="1" vertex="1">
          <mxGeometry y="626" width="120" height="120" as="geometry" />
        </mxCell>
        <mxCell id="WPgvBvjp4FEESnjXduVI-19" value="热电联产机组" style="rounded=1;arcSize=20;strokeWidth=2" parent="1" vertex="1">
          <mxGeometry x="-188" y="713" width="140" height="50" as="geometry" />
        </mxCell>
        <mxCell id="WPgvBvjp4FEESnjXduVI-20" value="工业热泵" style="rounded=1;arcSize=20;strokeWidth=2" parent="1" vertex="1">
          <mxGeometry x="-233" y="631" width="110" height="50" as="geometry" />
        </mxCell>
        <mxCell id="WPgvBvjp4FEESnjXduVI-21" value="能源分配系统" style="ellipse;aspect=fixed;strokeWidth=2;whiteSpace=wrap;fillColor=#60a917;fontColor=#ffffff;strokeColor=#2D7600;" parent="1" vertex="1">
          <mxGeometry x="122" y="763" width="120" height="120" as="geometry" />
        </mxCell>
        <mxCell id="WPgvBvjp4FEESnjXduVI-22" value="配电网络" style="rounded=1;arcSize=20;strokeWidth=2;fillColor=#60a917;fontColor=#ffffff;strokeColor=#2D7600;" parent="1" vertex="1">
          <mxGeometry x="-223" y="936" width="110" height="50" as="geometry" />
        </mxCell>
        <mxCell id="WPgvBvjp4FEESnjXduVI-23" value="蒸汽管网" style="rounded=1;arcSize=20;strokeWidth=2;fillColor=#60a917;fontColor=#ffffff;strokeColor=#2D7600;" parent="1" vertex="1">
          <mxGeometry x="-223" y="847" width="110" height="50" as="geometry" />
        </mxCell>
        <mxCell id="WPgvBvjp4FEESnjXduVI-24" value="压缩空气管网" style="rounded=1;arcSize=20;strokeWidth=2;fillColor=#60a917;fontColor=#ffffff;strokeColor=#2D7600;" parent="1" vertex="1">
          <mxGeometry x="-283" y="780" width="140" height="50" as="geometry" />
        </mxCell>
        <mxCell id="WPgvBvjp4FEESnjXduVI-25" value="储能系统" style="ellipse;aspect=fixed;strokeWidth=2;whiteSpace=wrap;" parent="1" vertex="1">
          <mxGeometry x="190" y="583" width="90" height="90" as="geometry" />
        </mxCell>
        <mxCell id="WPgvBvjp4FEESnjXduVI-26" value="电池储能系统" style="rounded=1;arcSize=20;strokeWidth=2" parent="1" vertex="1">
          <mxGeometry x="-150" y="366" width="140" height="50" as="geometry" />
        </mxCell>
        <mxCell id="WPgvBvjp4FEESnjXduVI-27" value="热存储罐" style="rounded=1;arcSize=20;strokeWidth=2" parent="1" vertex="1">
          <mxGeometry x="-146" y="558" width="100" height="50" as="geometry" />
        </mxCell>
        <mxCell id="WPgvBvjp4FEESnjXduVI-28" value="冷能存储设备" style="rounded=1;arcSize=20;strokeWidth=2" parent="1" vertex="1">
          <mxGeometry x="-170" y="457" width="140" height="50" as="geometry" />
        </mxCell>
        <mxCell id="WPgvBvjp4FEESnjXduVI-29" value="能源消费系统" style="ellipse;aspect=fixed;strokeWidth=2;whiteSpace=wrap;fillColor=#d5e8d4;strokeColor=#82b366;" parent="1" vertex="1">
          <mxGeometry x="531.5" y="538" width="120" height="120" as="geometry" />
        </mxCell>
        <mxCell id="WPgvBvjp4FEESnjXduVI-30" value="主要生产设备" style="ellipse;aspect=fixed;strokeWidth=2;whiteSpace=wrap;" parent="1" vertex="1">
          <mxGeometry x="462" y="305" width="120" height="120" as="geometry" />
        </mxCell>
        <mxCell id="WPgvBvjp4FEESnjXduVI-31" value="钢厂: 高炉、转炉、连铸机" style="rounded=1;arcSize=20;strokeWidth=2;fillColor=#60a917;fontColor=#ffffff;strokeColor=#2D7600;" parent="1" vertex="1">
          <mxGeometry x="149" y="214" width="230" height="50" as="geometry" />
        </mxCell>
        <mxCell id="WPgvBvjp4FEESnjXduVI-32" value="铝厂: 电解槽、铸锭设备" style="rounded=1;arcSize=20;strokeWidth=2;fillColor=#60a917;fontColor=#ffffff;strokeColor=#2D7600;" parent="1" vertex="1">
          <mxGeometry x="115" y="457" width="210" height="50" as="geometry" />
        </mxCell>
        <mxCell id="WPgvBvjp4FEESnjXduVI-33" value="铜厂: 熔炼炉、精炼炉" style="rounded=1;arcSize=20;strokeWidth=2;fillColor=#60a917;fontColor=#ffffff;strokeColor=#2D7600;" parent="1" vertex="1">
          <mxGeometry x="86" y="345" width="200" height="50" as="geometry" />
        </mxCell>
        <mxCell id="WPgvBvjp4FEESnjXduVI-34" value="辅助设施" style="ellipse;aspect=fixed;strokeWidth=2;whiteSpace=wrap;" parent="1" vertex="1">
          <mxGeometry x="623" y="323" width="90" height="90" as="geometry" />
        </mxCell>
        <mxCell id="WPgvBvjp4FEESnjXduVI-35" value="通风系统、空调系统、照明系统" style="rounded=1;arcSize=20;strokeWidth=2" parent="1" vertex="1">
          <mxGeometry x="534" y="122" width="230" height="70" as="geometry" />
        </mxCell>
        <mxCell id="WPgvBvjp4FEESnjXduVI-36" value="压缩空气系统、真空泵系统" style="rounded=1;arcSize=20;strokeWidth=2;fillColor=#60a917;fontColor=#ffffff;strokeColor=#2D7600;" parent="1" vertex="1">
          <mxGeometry x="802" y="132" width="230" height="50" as="geometry" />
        </mxCell>
        <mxCell id="WPgvBvjp4FEESnjXduVI-37" value="余热与废能回收系统" style="ellipse;aspect=fixed;strokeWidth=2;whiteSpace=wrap;" parent="1" vertex="1">
          <mxGeometry x="764" y="305" width="170" height="170" as="geometry" />
        </mxCell>
        <mxCell id="WPgvBvjp4FEESnjXduVI-38" value="余热锅炉" style="rounded=1;arcSize=20;strokeWidth=2" parent="1" vertex="1">
          <mxGeometry x="971" y="432" width="110" height="50" as="geometry" />
        </mxCell>
        <mxCell id="WPgvBvjp4FEESnjXduVI-39" value="余热回收设备" style="rounded=1;arcSize=20;strokeWidth=2" parent="1" vertex="1">
          <mxGeometry x="944" y="255" width="140" height="50" as="geometry" />
        </mxCell>
        <mxCell id="WPgvBvjp4FEESnjXduVI-40" value="烟气净化装置" style="rounded=1;arcSize=20;strokeWidth=2" parent="1" vertex="1">
          <mxGeometry x="1019" y="339" width="140" height="50" as="geometry" />
        </mxCell>
        <mxCell id="WPgvBvjp4FEESnjXduVI-41" value="环境监测与排放系统" style="ellipse;aspect=fixed;strokeWidth=2;whiteSpace=wrap;fillColor=#6a00ff;fontColor=#ffffff;strokeColor=#3700CC;" parent="1" vertex="1">
          <mxGeometry x="654" y="929" width="170" height="170" as="geometry" />
        </mxCell>
        <mxCell id="WPgvBvjp4FEESnjXduVI-42" value="排放系统" style="ellipse;aspect=fixed;strokeWidth=2;whiteSpace=wrap;fillColor=#60a917;fontColor=#ffffff;strokeColor=#2D7600;" parent="1" vertex="1">
          <mxGeometry x="994" y="1148" width="90" height="90" as="geometry" />
        </mxCell>
        <mxCell id="WPgvBvjp4FEESnjXduVI-43" value="废气: CO₂、SO₂、NOₓ" style="rounded=1;arcSize=20;strokeWidth=2;fillColor=#60a917;fontColor=#ffffff;strokeColor=#2D7600;" parent="1" vertex="1">
          <mxGeometry x="1167" y="1311" width="200" height="50" as="geometry" />
        </mxCell>
        <mxCell id="WPgvBvjp4FEESnjXduVI-44" value="废水" style="rounded=1;arcSize=20;strokeWidth=2" parent="1" vertex="1">
          <mxGeometry x="1226" y="1200" width="70" height="50" as="geometry" />
        </mxCell>
        <mxCell id="WPgvBvjp4FEESnjXduVI-45" value="固废" style="rounded=1;arcSize=20;strokeWidth=2" parent="1" vertex="1">
          <mxGeometry x="1051" y="1340" width="70" height="50" as="geometry" />
        </mxCell>
        <mxCell id="WPgvBvjp4FEESnjXduVI-46" value="环境监测系统" style="ellipse;aspect=fixed;strokeWidth=2;whiteSpace=wrap;" parent="1" vertex="1">
          <mxGeometry x="931" y="975" width="120" height="120" as="geometry" />
        </mxCell>
        <mxCell id="WPgvBvjp4FEESnjXduVI-47" value="空气质量监测站" style="rounded=1;arcSize=20;strokeWidth=2" parent="1" vertex="1">
          <mxGeometry x="1205" y="1017" width="150" height="50" as="geometry" />
        </mxCell>
        <mxCell id="WPgvBvjp4FEESnjXduVI-48" value="噪声监测设备" style="rounded=1;arcSize=20;strokeWidth=2" parent="1" vertex="1">
          <mxGeometry x="1288" y="1121" width="140" height="50" as="geometry" />
        </mxCell>
        <mxCell id="WPgvBvjp4FEESnjXduVI-49" value="能源可视化" style="ellipse;aspect=fixed;strokeWidth=2;whiteSpace=wrap;fillColor=#a20025;fontColor=#ffffff;strokeColor=#6F0000;" parent="1" vertex="1">
          <mxGeometry x="769" y="686" width="127" height="127" as="geometry" />
        </mxCell>
        <mxCell id="WPgvBvjp4FEESnjXduVI-50" value="实时监测与传感器网络" style="ellipse;aspect=fixed;strokeWidth=2;whiteSpace=wrap;fillColor=#60a917;fontColor=#ffffff;strokeColor=#2D7600;" parent="1" vertex="1">
          <mxGeometry x="1482" y="905" width="180" height="180" as="geometry" />
        </mxCell>
        <mxCell id="WPgvBvjp4FEESnjXduVI-51" value="温度、压力、流量传感器等" style="rounded=1;arcSize=20;strokeWidth=2;fillColor=#60a917;fontColor=#ffffff;strokeColor=#2D7600;" parent="1" vertex="1">
          <mxGeometry x="1861" y="984" width="230" height="50" as="geometry" />
        </mxCell>
        <mxCell id="WPgvBvjp4FEESnjXduVI-52" value="能源数据平台" style="ellipse;aspect=fixed;strokeWidth=2;whiteSpace=wrap;fillColor=#60a917;fontColor=#ffffff;strokeColor=#2D7600;" parent="1" vertex="1">
          <mxGeometry x="1178" y="652" width="120" height="120" as="geometry" />
        </mxCell>
        <mxCell id="WPgvBvjp4FEESnjXduVI-53" value="本地数据库" style="rounded=1;arcSize=20;strokeWidth=2;fillColor=#60a917;fontColor=#ffffff;strokeColor=#2D7600;" parent="1" vertex="1">
          <mxGeometry x="1892" y="889" width="120" height="50" as="geometry" />
        </mxCell>
        <mxCell id="WPgvBvjp4FEESnjXduVI-54" value="云端数据存储" style="rounded=1;arcSize=20;strokeWidth=2" parent="1" vertex="1">
          <mxGeometry x="1916" y="805" width="140" height="50" as="geometry" />
        </mxCell>
        <mxCell id="WPgvBvjp4FEESnjXduVI-55" value="数据接口: OPC UA, Modbus" style="rounded=1;arcSize=20;strokeWidth=2;fillColor=#60a917;fontColor=#ffffff;strokeColor=#2D7600;" parent="1" vertex="1">
          <mxGeometry x="1806" y="722" width="230" height="50" as="geometry" />
        </mxCell>
        <mxCell id="WPgvBvjp4FEESnjXduVI-56" value="能源指标与报告" style="ellipse;aspect=fixed;strokeWidth=2;whiteSpace=wrap;fillColor=#60a917;fontColor=#ffffff;strokeColor=#2D7600;" parent="1" vertex="1">
          <mxGeometry x="1081" y="515" width="130" height="130" as="geometry" />
        </mxCell>
        <mxCell id="WPgvBvjp4FEESnjXduVI-57" value="能源消耗报告" style="rounded=1;arcSize=20;strokeWidth=2;fillColor=#60a917;fontColor=#ffffff;strokeColor=#2D7600;" parent="1" vertex="1">
          <mxGeometry x="1367" y="465" width="140" height="50" as="geometry" />
        </mxCell>
        <mxCell id="WPgvBvjp4FEESnjXduVI-58" value="碳排放指标" style="rounded=1;arcSize=20;strokeWidth=2;fillColor=#60a917;fontColor=#ffffff;strokeColor=#2D7600;" parent="1" vertex="1">
          <mxGeometry x="1278" y="372" width="120" height="50" as="geometry" />
        </mxCell>
        <mxCell id="WPgvBvjp4FEESnjXduVI-59" value="能源KPI监测" style="rounded=1;arcSize=20;strokeWidth=2;fillColor=#60a917;fontColor=#ffffff;strokeColor=#2D7600;" parent="1" vertex="1">
          <mxGeometry x="1423" y="538" width="130" height="50" as="geometry" />
        </mxCell>
        <mxCell id="WPgvBvjp4FEESnjXduVI-60" style="endArrow=none;rounded=0;" parent="1" source="WPgvBvjp4FEESnjXduVI-1" target="WPgvBvjp4FEESnjXduVI-2" edge="1">
          <mxGeometry relative="1" as="geometry" />
        </mxCell>
        <mxCell id="WPgvBvjp4FEESnjXduVI-61" style="endArrow=none;rounded=0;" parent="1" source="WPgvBvjp4FEESnjXduVI-1" target="WPgvBvjp4FEESnjXduVI-17" edge="1">
          <mxGeometry relative="1" as="geometry" />
        </mxCell>
        <mxCell id="WPgvBvjp4FEESnjXduVI-62" style="endArrow=none;rounded=0;" parent="1" source="WPgvBvjp4FEESnjXduVI-1" target="WPgvBvjp4FEESnjXduVI-29" edge="1">
          <mxGeometry relative="1" as="geometry" />
        </mxCell>
        <mxCell id="WPgvBvjp4FEESnjXduVI-63" style="endArrow=none;rounded=0;" parent="1" source="WPgvBvjp4FEESnjXduVI-1" target="WPgvBvjp4FEESnjXduVI-41" edge="1">
          <mxGeometry relative="1" as="geometry" />
        </mxCell>
        <mxCell id="WPgvBvjp4FEESnjXduVI-64" style="endArrow=none;rounded=0;" parent="1" source="WPgvBvjp4FEESnjXduVI-1" target="WPgvBvjp4FEESnjXduVI-49" edge="1">
          <mxGeometry relative="1" as="geometry" />
        </mxCell>
        <mxCell id="WPgvBvjp4FEESnjXduVI-65" style="endArrow=none;rounded=0;" parent="1" source="WPgvBvjp4FEESnjXduVI-2" target="WPgvBvjp4FEESnjXduVI-3" edge="1">
          <mxGeometry relative="1" as="geometry" />
        </mxCell>
        <mxCell id="WPgvBvjp4FEESnjXduVI-66" style="endArrow=none;rounded=0;" parent="1" source="WPgvBvjp4FEESnjXduVI-2" target="WPgvBvjp4FEESnjXduVI-7" edge="1">
          <mxGeometry relative="1" as="geometry" />
        </mxCell>
        <mxCell id="WPgvBvjp4FEESnjXduVI-67" style="endArrow=none;rounded=0;" parent="1" source="WPgvBvjp4FEESnjXduVI-2" target="WPgvBvjp4FEESnjXduVI-11" edge="1">
          <mxGeometry relative="1" as="geometry" />
        </mxCell>
        <mxCell id="WPgvBvjp4FEESnjXduVI-68" style="endArrow=none;rounded=0;" parent="1" source="WPgvBvjp4FEESnjXduVI-2" target="WPgvBvjp4FEESnjXduVI-14" edge="1">
          <mxGeometry relative="1" as="geometry" />
        </mxCell>
        <mxCell id="WPgvBvjp4FEESnjXduVI-69" style="endArrow=none;rounded=0;" parent="1" source="WPgvBvjp4FEESnjXduVI-3" target="WPgvBvjp4FEESnjXduVI-4" edge="1">
          <mxGeometry relative="1" as="geometry" />
        </mxCell>
        <mxCell id="WPgvBvjp4FEESnjXduVI-70" style="endArrow=none;rounded=0;" parent="1" source="WPgvBvjp4FEESnjXduVI-3" target="WPgvBvjp4FEESnjXduVI-5" edge="1">
          <mxGeometry relative="1" as="geometry" />
        </mxCell>
        <mxCell id="WPgvBvjp4FEESnjXduVI-71" style="endArrow=none;rounded=0;" parent="1" source="WPgvBvjp4FEESnjXduVI-3" target="WPgvBvjp4FEESnjXduVI-6" edge="1">
          <mxGeometry relative="1" as="geometry" />
        </mxCell>
        <mxCell id="WPgvBvjp4FEESnjXduVI-72" style="endArrow=none;rounded=0;" parent="1" source="WPgvBvjp4FEESnjXduVI-7" target="WPgvBvjp4FEESnjXduVI-8" edge="1">
          <mxGeometry relative="1" as="geometry" />
        </mxCell>
        <mxCell id="WPgvBvjp4FEESnjXduVI-73" style="endArrow=none;rounded=0;" parent="1" source="WPgvBvjp4FEESnjXduVI-7" target="WPgvBvjp4FEESnjXduVI-9" edge="1">
          <mxGeometry relative="1" as="geometry" />
        </mxCell>
        <mxCell id="WPgvBvjp4FEESnjXduVI-74" style="endArrow=none;rounded=0;" parent="1" source="WPgvBvjp4FEESnjXduVI-7" target="WPgvBvjp4FEESnjXduVI-10" edge="1">
          <mxGeometry relative="1" as="geometry" />
        </mxCell>
        <mxCell id="WPgvBvjp4FEESnjXduVI-75" style="endArrow=none;rounded=0;" parent="1" source="WPgvBvjp4FEESnjXduVI-11" target="WPgvBvjp4FEESnjXduVI-12" edge="1">
          <mxGeometry relative="1" as="geometry" />
        </mxCell>
        <mxCell id="WPgvBvjp4FEESnjXduVI-76" style="endArrow=none;rounded=0;" parent="1" source="WPgvBvjp4FEESnjXduVI-11" target="WPgvBvjp4FEESnjXduVI-13" edge="1">
          <mxGeometry relative="1" as="geometry" />
        </mxCell>
        <mxCell id="WPgvBvjp4FEESnjXduVI-77" style="endArrow=none;rounded=0;" parent="1" source="WPgvBvjp4FEESnjXduVI-14" target="WPgvBvjp4FEESnjXduVI-15" edge="1">
          <mxGeometry relative="1" as="geometry" />
        </mxCell>
        <mxCell id="WPgvBvjp4FEESnjXduVI-78" style="endArrow=none;rounded=0;" parent="1" source="WPgvBvjp4FEESnjXduVI-14" target="WPgvBvjp4FEESnjXduVI-16" edge="1">
          <mxGeometry relative="1" as="geometry" />
        </mxCell>
        <mxCell id="WPgvBvjp4FEESnjXduVI-79" style="endArrow=none;rounded=0;" parent="1" source="WPgvBvjp4FEESnjXduVI-17" target="WPgvBvjp4FEESnjXduVI-18" edge="1">
          <mxGeometry relative="1" as="geometry" />
        </mxCell>
        <mxCell id="WPgvBvjp4FEESnjXduVI-80" style="endArrow=none;rounded=0;" parent="1" source="WPgvBvjp4FEESnjXduVI-17" target="WPgvBvjp4FEESnjXduVI-21" edge="1">
          <mxGeometry relative="1" as="geometry">
            <mxPoint x="1077.8093087760508" y="1267.9924901571867" as="sourcePoint" />
          </mxGeometry>
        </mxCell>
        <mxCell id="WPgvBvjp4FEESnjXduVI-81" style="endArrow=none;rounded=0;" parent="1" source="WPgvBvjp4FEESnjXduVI-17" target="WPgvBvjp4FEESnjXduVI-25" edge="1">
          <mxGeometry relative="1" as="geometry" />
        </mxCell>
        <mxCell id="WPgvBvjp4FEESnjXduVI-82" style="endArrow=none;rounded=0;" parent="1" source="WPgvBvjp4FEESnjXduVI-18" target="WPgvBvjp4FEESnjXduVI-19" edge="1">
          <mxGeometry relative="1" as="geometry" />
        </mxCell>
        <mxCell id="WPgvBvjp4FEESnjXduVI-83" style="endArrow=none;rounded=0;" parent="1" source="WPgvBvjp4FEESnjXduVI-18" target="WPgvBvjp4FEESnjXduVI-20" edge="1">
          <mxGeometry relative="1" as="geometry" />
        </mxCell>
        <mxCell id="WPgvBvjp4FEESnjXduVI-84" style="endArrow=none;rounded=0;" parent="1" source="WPgvBvjp4FEESnjXduVI-21" target="WPgvBvjp4FEESnjXduVI-22" edge="1">
          <mxGeometry relative="1" as="geometry" />
        </mxCell>
        <mxCell id="WPgvBvjp4FEESnjXduVI-85" style="endArrow=none;rounded=0;" parent="1" source="WPgvBvjp4FEESnjXduVI-21" target="WPgvBvjp4FEESnjXduVI-23" edge="1">
          <mxGeometry relative="1" as="geometry" />
        </mxCell>
        <mxCell id="WPgvBvjp4FEESnjXduVI-86" style="endArrow=none;rounded=0;" parent="1" source="WPgvBvjp4FEESnjXduVI-21" target="WPgvBvjp4FEESnjXduVI-24" edge="1">
          <mxGeometry relative="1" as="geometry" />
        </mxCell>
        <mxCell id="WPgvBvjp4FEESnjXduVI-87" style="endArrow=none;rounded=0;" parent="1" source="WPgvBvjp4FEESnjXduVI-25" target="WPgvBvjp4FEESnjXduVI-26" edge="1">
          <mxGeometry relative="1" as="geometry" />
        </mxCell>
        <mxCell id="WPgvBvjp4FEESnjXduVI-88" style="endArrow=none;rounded=0;" parent="1" source="WPgvBvjp4FEESnjXduVI-25" target="WPgvBvjp4FEESnjXduVI-27" edge="1">
          <mxGeometry relative="1" as="geometry" />
        </mxCell>
        <mxCell id="WPgvBvjp4FEESnjXduVI-89" style="endArrow=none;rounded=0;" parent="1" source="WPgvBvjp4FEESnjXduVI-25" target="WPgvBvjp4FEESnjXduVI-28" edge="1">
          <mxGeometry relative="1" as="geometry" />
        </mxCell>
        <mxCell id="WPgvBvjp4FEESnjXduVI-90" style="endArrow=none;rounded=0;" parent="1" source="WPgvBvjp4FEESnjXduVI-29" target="WPgvBvjp4FEESnjXduVI-30" edge="1">
          <mxGeometry relative="1" as="geometry" />
        </mxCell>
        <mxCell id="WPgvBvjp4FEESnjXduVI-91" style="endArrow=none;rounded=0;" parent="1" source="WPgvBvjp4FEESnjXduVI-29" target="WPgvBvjp4FEESnjXduVI-34" edge="1">
          <mxGeometry relative="1" as="geometry" />
        </mxCell>
        <mxCell id="WPgvBvjp4FEESnjXduVI-92" style="endArrow=none;rounded=0;" parent="1" source="WPgvBvjp4FEESnjXduVI-29" target="WPgvBvjp4FEESnjXduVI-37" edge="1">
          <mxGeometry relative="1" as="geometry" />
        </mxCell>
        <mxCell id="WPgvBvjp4FEESnjXduVI-93" style="endArrow=none;rounded=0;" parent="1" source="WPgvBvjp4FEESnjXduVI-30" target="WPgvBvjp4FEESnjXduVI-31" edge="1">
          <mxGeometry relative="1" as="geometry" />
        </mxCell>
        <mxCell id="WPgvBvjp4FEESnjXduVI-94" style="endArrow=none;rounded=0;" parent="1" source="WPgvBvjp4FEESnjXduVI-30" target="WPgvBvjp4FEESnjXduVI-32" edge="1">
          <mxGeometry relative="1" as="geometry" />
        </mxCell>
        <mxCell id="WPgvBvjp4FEESnjXduVI-95" style="endArrow=none;rounded=0;" parent="1" source="WPgvBvjp4FEESnjXduVI-30" target="WPgvBvjp4FEESnjXduVI-33" edge="1">
          <mxGeometry relative="1" as="geometry" />
        </mxCell>
        <mxCell id="WPgvBvjp4FEESnjXduVI-96" style="endArrow=none;rounded=0;" parent="1" source="WPgvBvjp4FEESnjXduVI-34" target="WPgvBvjp4FEESnjXduVI-35" edge="1">
          <mxGeometry relative="1" as="geometry" />
        </mxCell>
        <mxCell id="WPgvBvjp4FEESnjXduVI-97" style="endArrow=none;rounded=0;" parent="1" source="WPgvBvjp4FEESnjXduVI-34" target="WPgvBvjp4FEESnjXduVI-36" edge="1">
          <mxGeometry relative="1" as="geometry" />
        </mxCell>
        <mxCell id="WPgvBvjp4FEESnjXduVI-98" style="endArrow=none;rounded=0;" parent="1" source="WPgvBvjp4FEESnjXduVI-37" target="WPgvBvjp4FEESnjXduVI-38" edge="1">
          <mxGeometry relative="1" as="geometry" />
        </mxCell>
        <mxCell id="WPgvBvjp4FEESnjXduVI-99" style="endArrow=none;rounded=0;" parent="1" source="WPgvBvjp4FEESnjXduVI-37" target="WPgvBvjp4FEESnjXduVI-39" edge="1">
          <mxGeometry relative="1" as="geometry" />
        </mxCell>
        <mxCell id="WPgvBvjp4FEESnjXduVI-100" style="endArrow=none;rounded=0;" parent="1" source="WPgvBvjp4FEESnjXduVI-37" target="WPgvBvjp4FEESnjXduVI-40" edge="1">
          <mxGeometry relative="1" as="geometry" />
        </mxCell>
        <mxCell id="WPgvBvjp4FEESnjXduVI-101" style="endArrow=none;rounded=0;" parent="1" source="WPgvBvjp4FEESnjXduVI-41" target="WPgvBvjp4FEESnjXduVI-42" edge="1">
          <mxGeometry relative="1" as="geometry" />
        </mxCell>
        <mxCell id="WPgvBvjp4FEESnjXduVI-102" style="endArrow=none;rounded=0;" parent="1" source="WPgvBvjp4FEESnjXduVI-41" target="WPgvBvjp4FEESnjXduVI-46" edge="1">
          <mxGeometry relative="1" as="geometry" />
        </mxCell>
        <mxCell id="WPgvBvjp4FEESnjXduVI-103" style="endArrow=none;rounded=0;" parent="1" source="WPgvBvjp4FEESnjXduVI-42" target="WPgvBvjp4FEESnjXduVI-43" edge="1">
          <mxGeometry relative="1" as="geometry" />
        </mxCell>
        <mxCell id="WPgvBvjp4FEESnjXduVI-104" style="endArrow=none;rounded=0;" parent="1" source="WPgvBvjp4FEESnjXduVI-42" target="WPgvBvjp4FEESnjXduVI-44" edge="1">
          <mxGeometry relative="1" as="geometry" />
        </mxCell>
        <mxCell id="WPgvBvjp4FEESnjXduVI-105" style="endArrow=none;rounded=0;" parent="1" source="WPgvBvjp4FEESnjXduVI-42" target="WPgvBvjp4FEESnjXduVI-45" edge="1">
          <mxGeometry relative="1" as="geometry" />
        </mxCell>
        <mxCell id="WPgvBvjp4FEESnjXduVI-106" style="endArrow=none;rounded=0;" parent="1" source="WPgvBvjp4FEESnjXduVI-46" target="WPgvBvjp4FEESnjXduVI-47" edge="1">
          <mxGeometry relative="1" as="geometry" />
        </mxCell>
        <mxCell id="WPgvBvjp4FEESnjXduVI-107" style="endArrow=none;rounded=0;" parent="1" source="WPgvBvjp4FEESnjXduVI-46" target="WPgvBvjp4FEESnjXduVI-48" edge="1">
          <mxGeometry relative="1" as="geometry" />
        </mxCell>
        <mxCell id="WPgvBvjp4FEESnjXduVI-108" style="endArrow=none;rounded=0;" parent="1" source="WPgvBvjp4FEESnjXduVI-52" target="WPgvBvjp4FEESnjXduVI-50" edge="1">
          <mxGeometry relative="1" as="geometry" />
        </mxCell>
        <mxCell id="WPgvBvjp4FEESnjXduVI-109" style="endArrow=none;rounded=0;" parent="1" source="WPgvBvjp4FEESnjXduVI-49" target="WPgvBvjp4FEESnjXduVI-52" edge="1">
          <mxGeometry relative="1" as="geometry" />
        </mxCell>
        <mxCell id="WPgvBvjp4FEESnjXduVI-110" style="endArrow=none;rounded=0;" parent="1" source="WPgvBvjp4FEESnjXduVI-49" target="WPgvBvjp4FEESnjXduVI-56" edge="1">
          <mxGeometry relative="1" as="geometry" />
        </mxCell>
        <mxCell id="WPgvBvjp4FEESnjXduVI-111" style="endArrow=none;rounded=0;" parent="1" source="WPgvBvjp4FEESnjXduVI-50" target="WPgvBvjp4FEESnjXduVI-51" edge="1">
          <mxGeometry relative="1" as="geometry" />
        </mxCell>
        <mxCell id="WPgvBvjp4FEESnjXduVI-112" style="endArrow=none;rounded=0;" parent="1" source="WPgvBvjp4FEESnjXduVI-52" target="WPgvBvjp4FEESnjXduVI-53" edge="1">
          <mxGeometry relative="1" as="geometry" />
        </mxCell>
        <mxCell id="WPgvBvjp4FEESnjXduVI-113" style="endArrow=none;rounded=0;" parent="1" source="WPgvBvjp4FEESnjXduVI-52" target="WPgvBvjp4FEESnjXduVI-54" edge="1">
          <mxGeometry relative="1" as="geometry" />
        </mxCell>
        <mxCell id="WPgvBvjp4FEESnjXduVI-114" style="endArrow=none;rounded=0;" parent="1" source="WPgvBvjp4FEESnjXduVI-52" target="WPgvBvjp4FEESnjXduVI-55" edge="1">
          <mxGeometry relative="1" as="geometry" />
        </mxCell>
        <mxCell id="WPgvBvjp4FEESnjXduVI-115" style="endArrow=none;rounded=0;" parent="1" source="WPgvBvjp4FEESnjXduVI-56" target="WPgvBvjp4FEESnjXduVI-57" edge="1">
          <mxGeometry relative="1" as="geometry" />
        </mxCell>
        <mxCell id="WPgvBvjp4FEESnjXduVI-116" style="endArrow=none;rounded=0;" parent="1" source="WPgvBvjp4FEESnjXduVI-56" target="WPgvBvjp4FEESnjXduVI-58" edge="1">
          <mxGeometry relative="1" as="geometry" />
        </mxCell>
        <mxCell id="WPgvBvjp4FEESnjXduVI-117" style="endArrow=none;rounded=0;" parent="1" source="WPgvBvjp4FEESnjXduVI-56" target="WPgvBvjp4FEESnjXduVI-59" edge="1">
          <mxGeometry relative="1" as="geometry" />
        </mxCell>
        <mxCell id="WPgvBvjp4FEESnjXduVI-122" value="多维度数据采集" style="ellipse;aspect=fixed;strokeWidth=2;whiteSpace=wrap;fillColor=#60a917;fontColor=#ffffff;strokeColor=#2D7600;" parent="1" vertex="1">
          <mxGeometry x="1438" y="593" width="120" height="120" as="geometry" />
        </mxCell>
        <mxCell id="WPgvBvjp4FEESnjXduVI-123" value="" style="endArrow=none;html=1;rounded=0;" parent="1" source="WPgvBvjp4FEESnjXduVI-52" target="WPgvBvjp4FEESnjXduVI-122" edge="1">
          <mxGeometry width="50" height="50" relative="1" as="geometry">
            <mxPoint x="1395" y="790" as="sourcePoint" />
            <mxPoint x="1445" y="740" as="targetPoint" />
          </mxGeometry>
        </mxCell>
        <mxCell id="WPgvBvjp4FEESnjXduVI-124" value="整合现有数据源" style="rounded=1;arcSize=20;strokeWidth=2;fillColor=#60a917;fontColor=#ffffff;strokeColor=#2D7600;" parent="1" vertex="1">
          <mxGeometry x="1599" y="471" width="230" height="50" as="geometry" />
        </mxCell>
        <mxCell id="WPgvBvjp4FEESnjXduVI-125" value="补充缺失数据点" style="rounded=1;arcSize=20;strokeWidth=2;fillColor=#60a917;fontColor=#ffffff;strokeColor=#2D7600;" parent="1" vertex="1">
          <mxGeometry x="1662" y="568" width="230" height="50" as="geometry" />
        </mxCell>
        <mxCell id="WPgvBvjp4FEESnjXduVI-126" value="提升数据质量" style="rounded=1;arcSize=20;strokeWidth=2;fillColor=#60a917;fontColor=#ffffff;strokeColor=#2D7600;" parent="1" vertex="1">
          <mxGeometry x="1667" y="631" width="230" height="50" as="geometry" />
        </mxCell>
        <mxCell id="WPgvBvjp4FEESnjXduVI-127" value="" style="endArrow=none;html=1;rounded=0;" parent="1" source="WPgvBvjp4FEESnjXduVI-122" target="WPgvBvjp4FEESnjXduVI-124" edge="1">
          <mxGeometry width="50" height="50" relative="1" as="geometry">
            <mxPoint x="1395" y="790" as="sourcePoint" />
            <mxPoint x="1445" y="740" as="targetPoint" />
          </mxGeometry>
        </mxCell>
        <mxCell id="WPgvBvjp4FEESnjXduVI-128" value="" style="endArrow=none;html=1;rounded=0;" parent="1" source="WPgvBvjp4FEESnjXduVI-122" target="WPgvBvjp4FEESnjXduVI-125" edge="1">
          <mxGeometry width="50" height="50" relative="1" as="geometry">
            <mxPoint x="1556" y="628" as="sourcePoint" />
            <mxPoint x="1690" y="531" as="targetPoint" />
          </mxGeometry>
        </mxCell>
        <mxCell id="WPgvBvjp4FEESnjXduVI-129" value="" style="endArrow=none;html=1;rounded=0;" parent="1" source="WPgvBvjp4FEESnjXduVI-122" target="WPgvBvjp4FEESnjXduVI-126" edge="1">
          <mxGeometry width="50" height="50" relative="1" as="geometry">
            <mxPoint x="1567" y="650" as="sourcePoint" />
            <mxPoint x="1672" y="628" as="targetPoint" />
          </mxGeometry>
        </mxCell>
        <mxCell id="WPgvBvjp4FEESnjXduVI-130" value="煤气" style="ellipse;aspect=fixed;strokeWidth=2;whiteSpace=wrap;" parent="1" vertex="1">
          <mxGeometry x="459" y="1238" width="90" height="90" as="geometry" />
        </mxCell>
        <mxCell id="WPgvBvjp4FEESnjXduVI-131" value="工业气体" style="ellipse;aspect=fixed;strokeWidth=2;whiteSpace=wrap;" parent="1" vertex="1">
          <mxGeometry x="559" y="1180" width="90" height="90" as="geometry" />
        </mxCell>
      </root>
    </mxGraphModel>
  </diagram>
</mxfile>
